<svg width="879" height="1735" viewBox="0 0 879 1735" fill="none" xmlns="http://www.w3.org/2000/svg">
<path d="M526.008 1.80408C524.275 3.13745 522.008 3.93738 521.075 3.53735C520.141 3.13745 518.541 3.40405 517.608 4.0708C516.808 4.73743 513.608 6.0708 510.541 6.87073C507.608 7.80408 504.008 9.67078 502.675 11.1375C501.341 12.6041 499.475 13.8041 498.408 13.8041C495.608 13.8041 472.941 32.4707 464.008 42.2041C449.475 57.8041 448.675 58.8707 447.341 62.4707C446.675 64.3374 445.341 65.5374 444.675 65.1375C443.875 64.6041 443.475 64.7374 443.608 65.4041C443.875 65.9374 442.541 67.9374 440.941 69.8041C432.408 78.8707 409.475 116.737 396.408 143.137C374.941 186.471 361.875 236.471 354.141 304.737C351.475 327.404 349.875 362.604 347.475 442.471C346.808 463.004 345.741 481.404 344.941 483.271C342.941 488.204 335.341 495.004 319.875 505.671C304.808 515.937 290.541 523.671 288.675 522.471C287.875 521.937 287.341 522.604 287.341 523.671C287.341 524.737 284.675 527.271 281.341 529.271C278.008 531.137 275.341 533.271 275.341 533.937C275.341 534.604 274.141 535.137 272.808 535.137C271.341 535.137 270.008 535.537 269.741 536.071C269.075 537.671 260.941 543.137 259.475 543.137C258.675 543.137 257.608 543.937 257.075 545.004C255.475 547.671 244.675 552.604 244.541 550.737C244.541 549.804 243.741 550.604 242.941 552.471C240.941 556.737 238.541 559.271 237.475 558.204C237.075 557.671 236.675 558.071 236.675 558.871C236.675 559.671 235.875 560.071 234.808 559.671C233.741 559.271 232.675 560.204 232.275 561.937C231.741 563.671 231.075 564.604 230.675 564.204C230.141 563.671 228.675 564.337 227.341 565.537C223.075 569.404 220.941 571.137 210.275 578.737C204.675 582.737 199.608 587.271 199.075 588.604C198.541 589.938 197.608 591.137 196.941 591.137C196.275 591.137 191.475 595.271 186.275 600.471C181.075 605.537 176.408 609.804 175.875 609.804C174.141 609.804 104.408 681.404 95.3414 692.471C92.808 695.537 89.8747 698.871 89.0747 699.804C88.1414 700.871 87.3414 702.204 87.3414 703.004C87.3414 703.804 86.808 704.471 86.008 704.471C85.3414 704.471 83.8747 706.471 82.6747 708.737C81.608 711.137 78.808 715.271 76.5414 717.804C74.2747 720.337 71.208 725.137 69.4747 728.471C65.208 737.137 54.5414 755.804 48.1414 765.804C45.0747 770.604 41.0747 777.804 39.3414 781.804C37.608 785.804 35.208 790.204 34.008 791.671C32.9414 793.004 32.1414 794.471 32.2747 795.004C32.808 796.471 30.008 805.937 25.8747 817.137C15.608 844.471 8.2747 872.871 3.0747 905.804C-0.791969 930.737 -1.05864 974.204 2.54136 997.137C7.74136 1030.34 13.208 1055.94 17.3414 1065.8C18.408 1068.34 20.1414 1074.2 21.3414 1078.87C22.5414 1083.54 25.208 1091.27 27.3414 1095.94C29.608 1100.6 31.3414 1106.07 31.3414 1107.94C31.3414 1109.8 31.8747 1111 32.5414 1110.6C33.208 1110.07 34.1414 1111.54 34.6747 1113.67C35.0747 1115.8 36.408 1118.34 37.4747 1119.27C38.5414 1120.07 39.3414 1121.94 39.3414 1123.4C39.3414 1124.74 40.808 1127.54 42.5414 1129.4C44.408 1131.4 48.9414 1138.74 52.808 1145.67C64.1414 1166.6 70.1414 1176.07 79.7414 1188.2C90.9414 1202.74 110.675 1223.14 113.475 1223.14C114.141 1223.14 130.275 1237.54 143.208 1249.54C147.875 1254.07 159.875 1262.07 168.275 1266.6C173.208 1269.27 179.208 1272.87 181.608 1274.6C183.875 1276.34 186.275 1277.8 186.675 1277.8C187.875 1277.8 199.875 1286.2 200.408 1287.54C200.675 1288.07 201.475 1288.07 202.275 1287.67C203.075 1287.14 204.141 1287.67 204.808 1288.6C205.608 1289.94 206.008 1289.67 206.008 1287.4C206.008 1285.67 206.808 1284.47 208.141 1284.47C209.608 1284.47 210.141 1285.27 209.608 1287.14C209.075 1289.27 212.141 1293.8 213.608 1292.74C213.741 1292.6 214.141 1292.47 214.408 1292.6C214.541 1292.6 215.608 1292.87 216.675 1293.14C222.808 1294.47 226.008 1296.6 226.141 1299.4C226.141 1301.14 226.541 1301.67 226.941 1300.74C227.875 1298.34 231.341 1298.74 231.341 1301.4C231.341 1303.14 231.741 1303.27 232.408 1302.2C234.141 1299.54 246.008 1302.07 270.675 1310.47C296.408 1319.14 302.141 1322.47 308.408 1332.74C317.475 1347.27 319.341 1367.14 317.875 1431.14C316.275 1499.14 312.541 1536.2 300.808 1597.27C296.541 1619.14 289.475 1641.67 286.008 1643.8C285.208 1644.34 283.075 1646.87 281.341 1649.54C273.075 1662.2 247.208 1685.8 241.608 1685.8C240.675 1685.8 238.141 1687 235.875 1688.34C232.675 1690.34 231.208 1690.6 230.008 1689.4C228.675 1688.2 228.541 1688.2 229.208 1689.4C229.875 1690.6 226.808 1692.6 223.341 1693.14C222.941 1693.14 222.141 1693.54 221.341 1693.94C218.541 1695.67 203.475 1696.87 186.675 1696.6C161.608 1696.34 136.808 1691.27 124.408 1683.67C119.608 1680.74 116.141 1679.4 114.541 1680.07C113.075 1680.6 112.541 1680.47 113.208 1679.4C114.141 1677.94 106.275 1671.14 103.608 1671.14C100.541 1671.14 83.0747 1654.2 79.8747 1648.07C76.2747 1641.4 78.5414 1640.47 98.808 1640.47C110.141 1640.47 119.741 1639.67 125.608 1638.34C134.808 1636.2 143.341 1632.87 144.808 1630.74C145.208 1630.2 146.141 1629.8 146.808 1630.07C148.541 1630.47 155.875 1626.34 163.075 1620.87C186.141 1603.4 199.741 1573.14 202.675 1532.87C203.475 1522.2 201.608 1502.47 199.341 1497.14C198.675 1495.67 197.475 1492.07 196.675 1489.14C194.941 1483.4 184.008 1462.34 182.275 1461.54C181.741 1461.27 178.675 1457.8 175.341 1453.67C168.408 1445.14 162.275 1439.54 154.675 1434.87C145.608 1429.4 133.075 1424.47 124.408 1422.87C119.741 1422.07 114.541 1420.74 112.675 1419.8C110.408 1418.6 107.608 1418.34 104.008 1419.14C101.075 1419.67 96.5414 1420.6 94.008 1421.14C88.008 1422.34 70.5414 1431.27 61.7414 1437.54C58.008 1440.2 51.8747 1445.4 48.1414 1449.14C44.408 1452.74 40.9414 1455.67 40.408 1455.4C39.8747 1455.27 39.3414 1456.07 39.3414 1457.27C39.3414 1458.47 37.208 1461.54 34.6747 1464.07C32.1414 1466.6 30.008 1469.54 30.008 1470.47C30.008 1471.4 28.5414 1475.14 26.808 1478.74C11.8747 1508.47 8.94136 1547.94 18.808 1587.8C24.6747 1612.07 34.1414 1638.07 35.8747 1635.27C37.4747 1632.74 39.4747 1635 38.1414 1637.67C37.208 1639.27 37.3414 1641.14 38.5414 1643.4C39.608 1645.27 41.3414 1649.8 42.5414 1653.4C43.7414 1657 45.7414 1660.87 47.0747 1662.07C48.2747 1663.27 52.6747 1667.94 56.6747 1672.6C74.808 1693.54 91.208 1708.47 96.1414 1708.47C97.208 1708.47 99.208 1710.2 100.408 1712.47C101.608 1714.6 103.741 1716.47 104.941 1716.47C106.275 1716.47 108.408 1717.4 109.875 1718.74C111.341 1719.94 114.141 1721 116.275 1721.14C123.075 1721.67 131.875 1723.4 137.608 1725.27C146.941 1728.34 168.275 1731 187.341 1731.67C197.208 1732.07 208.408 1733 212.275 1733.94C218.008 1735.27 219.875 1735.27 222.541 1733.94C224.408 1732.87 226.675 1732.47 227.741 1732.87C228.808 1733.27 231.341 1732.74 233.475 1731.54C235.608 1730.47 242.408 1727.4 248.541 1724.87C265.341 1717.94 279.475 1708.2 296.541 1691.8C318.808 1670.47 334.008 1647.8 346.408 1617.14C361.608 1579.8 365.741 1556.07 368.675 1487.8C369.341 1470.2 370.275 1449.54 370.675 1441.8C371.075 1434.07 372.008 1411.54 372.675 1391.8C374.141 1350.07 376.941 1323.27 380.408 1317.27C383.075 1312.6 384.408 1311.8 401.341 1304.74C413.741 1299.54 432.541 1289.54 440.675 1283.67C453.208 1274.74 471.475 1258.6 480.008 1249C483.608 1244.87 489.341 1238.74 492.675 1235.27C499.341 1228.34 500.675 1226.47 509.341 1213.27C512.541 1208.2 515.741 1203.67 516.408 1203.27C516.941 1202.87 518.141 1201 519.075 1199.14C519.875 1197.27 523.075 1191.94 526.141 1187.14C538.141 1168.2 558.675 1118.34 570.675 1079.14C572.541 1073.14 583.608 1041.54 585.075 1037.8C585.608 1036.74 587.075 1032.2 588.541 1027.8C592.141 1016.07 605.341 979.271 608.008 973.137C609.208 970.204 611.208 964.737 612.275 961.137C613.341 957.404 614.808 953.804 615.341 953.137C616.675 951.537 619.475 943.937 624.141 929.137C626.008 923.271 629.341 913.937 631.341 908.471C633.475 903.004 635.875 896.071 636.675 893.137C638.141 887.804 639.475 884.471 652.408 849.804C656.141 839.937 661.741 824.871 664.808 816.471C667.875 808.071 670.941 800.871 671.608 800.737C672.141 800.471 672.675 799.137 672.675 797.804C672.675 795.671 677.608 781.004 680.675 774.471C681.341 773.004 682.541 769.537 683.475 766.737C684.408 764.071 685.608 761.804 686.008 761.804C686.408 761.804 686.941 760.204 687.075 758.204C687.208 756.204 688.008 753.937 688.675 753.271C689.475 752.471 690.008 751.004 690.008 749.804C690.008 748.604 691.341 744.871 693.075 741.537C694.808 738.204 696.941 733.004 698.008 729.937C698.941 727.004 700.275 724.471 700.941 724.471C701.475 724.471 702.008 722.871 702.008 721.004C702.008 719.137 703.475 713.937 705.208 709.404C706.941 704.871 709.608 697.271 711.208 692.471C712.808 687.671 714.675 682.604 715.341 681.137C716.008 679.671 717.475 675.404 718.808 671.804C720.141 668.071 722.275 663.271 723.608 661.137C726.675 655.938 726.675 655.271 723.075 656.071C720.675 656.737 720.408 656.471 721.475 655.137C722.408 654.204 724.275 653.938 725.875 654.471C729.341 655.537 729.208 655.271 729.608 693.137C729.608 709.271 730.275 741.671 730.808 765.137C733.741 893.537 734.141 999.137 732.008 1033.14C730.941 1047.8 728.808 1056.6 725.075 1060.2C723.475 1061.8 721.075 1065 720.008 1067.14C718.808 1069.54 715.475 1072.07 711.075 1074.2C702.675 1078.07 699.341 1078.87 686.008 1079.8C680.541 1080.07 675.875 1081 675.608 1081.67C675.341 1082.34 674.141 1082.6 672.808 1082.2C671.475 1081.94 668.675 1083.14 666.275 1085.14C658.941 1091.27 660.808 1103.14 670.008 1107.8C673.075 1109.4 683.075 1109.94 720.941 1110.47C759.875 1111.14 800.675 1112.2 806.675 1112.74C809.208 1112.87 847.875 1111.14 859.341 1110.34C870.808 1109.4 876.675 1107.14 876.675 1103.54C876.675 1102.47 877.208 1102.07 878.008 1102.47C879.475 1103.4 878.408 1096.2 876.275 1091C874.275 1085.94 871.208 1084.6 858.275 1082.34C834.141 1078.2 816.541 1067.54 812.408 1054.74C810.941 1050.2 808.541 1021.54 808.008 1003.14C807.741 996.871 806.941 972.604 806.008 949.137C805.208 925.671 804.675 897.137 804.941 885.804C805.208 874.471 804.941 843.271 804.275 816.471C803.741 789.671 803.341 741.137 803.341 708.471C803.341 635.004 804.408 626.871 815.208 616.737C822.008 610.471 824.808 609.137 842.008 605.004C865.741 599.404 868.675 597.537 868.675 588.471C868.675 585.537 867.475 583.004 864.808 580.337C861.208 576.737 860.141 576.471 850.408 576.337C844.675 576.204 832.808 575.938 824.008 575.804C788.808 575.137 769.608 575.004 769.075 575.671C768.675 575.938 766.808 575.671 764.675 575.004C762.141 574.071 759.208 574.071 755.608 575.004C752.008 576.071 749.075 576.071 746.808 575.137C744.941 574.471 743.341 574.337 743.341 575.004C743.341 575.537 736.541 576.471 728.408 576.871C720.141 577.271 711.075 578.337 708.275 579.137C698.008 582.204 696.675 584.737 679.875 636.337C671.341 662.471 663.875 685.004 663.208 686.471C662.675 687.938 660.408 694.871 658.141 701.804C656.008 708.737 648.541 731.271 641.608 751.804C634.541 772.337 625.608 799.271 621.475 811.804C617.475 824.204 612.008 840.737 609.341 848.471C606.675 856.204 598.275 880.471 590.675 902.471C574.408 950.071 575.475 947.137 573.208 947.137C572.275 947.137 570.941 946.071 570.141 944.737C567.608 940.071 544.808 876.471 539.341 859.137C536.275 849.271 527.741 824.071 520.408 803.137C513.075 782.204 503.875 755.271 500.008 743.137C496.008 731.004 490.941 716.071 488.675 709.804C486.541 703.537 481.608 689.537 477.875 678.604C474.141 667.537 468.941 653.137 466.408 646.604C463.875 639.938 460.141 629.671 458.008 623.804C448.808 598.204 444.808 587.271 441.608 578.871L438.275 570.071L440.808 564.871C443.741 559.137 453.208 547.004 470.008 527.537C476.275 520.337 482.941 512.604 484.675 510.337C486.541 508.071 492.808 500.337 498.675 493.004C510.541 478.471 511.741 476.737 530.541 448.737C537.741 437.937 544.808 427.537 546.141 425.537C547.608 423.537 548.675 421.404 548.675 420.871C548.808 420.337 551.475 415.537 554.675 410.471C567.075 390.471 588.008 344.737 598.141 315.404C607.341 288.071 616.141 251.271 619.208 225.671C621.475 208.204 623.475 166.337 622.675 153.804C622.275 147.537 621.741 136.737 621.341 129.804C620.541 114.471 612.808 73.1375 610.141 69.1375C609.608 68.3374 607.475 63.5374 605.475 58.4707C602.141 49.9374 600.408 46.4707 594.141 34.6041C592.941 32.4707 590.275 29.1375 588.141 27.2708C586.008 25.4041 582.408 21.8041 580.275 19.4041C578.008 17.1375 575.475 15.1375 574.541 15.1375C573.608 15.1375 572.675 14.7374 572.408 14.0708C572.275 13.5374 569.475 11.4041 566.541 9.40405C560.808 5.53735 555.875 3.80408 546.541 2.4707C543.608 2.0708 539.208 1.13745 536.941 0.470703C534.141 -0.195923 532.408 -0.195923 531.875 0.737427C531.208 1.67078 530.675 1.67078 530.141 0.737427C529.608 -0.195923 528.141 0.204102 526.008 1.80408ZM562.541 129.271C569.475 133.271 573.341 138.871 576.275 149.804C579.875 163.404 578.808 194.337 574.008 213.804C569.875 230.604 567.741 237.671 562.408 252.471C555.475 271.804 542.541 298.871 532.675 315.137C528.808 321.404 525.341 327.404 524.941 328.471C524.541 329.537 521.875 333.804 518.808 337.804C511.741 347.404 512.008 347.137 507.608 352.471C505.475 355.004 502.275 359.271 500.541 361.937C494.141 371.404 471.075 397.271 458.141 409.537C454.008 413.404 445.075 420.871 438.275 426.204C421.741 438.871 421.608 439.137 410.008 446.471C404.541 450.071 397.875 454.337 395.341 455.937C392.808 457.671 388.408 459.937 385.741 461.004L380.808 463.137L379.741 458.737C378.008 451.937 379.075 388.604 381.341 367.137C384.141 340.871 387.875 314.604 390.008 307.137C391.475 302.337 392.941 296.337 393.475 293.804C398.675 265.537 415.741 229.937 440.541 195.137C447.875 184.871 481.741 150.471 485.875 149.137C487.341 148.737 488.675 147.537 488.675 146.471C488.675 144.871 490.541 143.537 493.208 143.404C493.875 143.404 494.808 142.871 495.208 142.204C496.541 140.337 521.475 128.471 524.141 128.471C525.608 128.471 527.608 127.804 528.675 127.137C529.741 126.337 536.541 125.804 543.875 125.937C554.941 126.071 557.875 126.604 562.541 129.271ZM395.341 643.804C395.341 644.871 396.275 647.938 397.475 650.737C398.675 653.537 400.275 657.004 400.808 658.471C404.808 667.671 423.741 727.004 425.341 735.137C425.875 737.671 427.475 742.204 428.675 745.137C430.008 748.071 431.475 752.604 432.008 755.137C433.208 761.271 441.608 788.737 444.808 796.737C448.008 804.737 448.141 812.204 445.075 813.404C442.941 814.204 439.875 813.537 416.675 806.737C410.408 804.871 402.808 802.737 399.741 801.804C395.608 800.737 393.475 799.271 392.141 796.604C388.541 789.671 386.941 765.404 387.875 728.204C388.808 687.537 388.808 690.471 388.808 666.604C388.808 652.737 389.208 647.271 390.808 644.337C392.808 640.471 395.341 640.204 395.341 643.804ZM342.941 654.737C343.608 656.871 344.008 683.004 343.875 713.137C343.741 786.204 342.141 796.604 330.275 801.271C327.608 802.337 322.008 804.604 318.008 806.471C311.208 809.404 294.941 814.871 289.741 815.804C288.408 816.071 286.141 817.537 284.541 819.004C282.941 820.471 280.008 822.337 277.875 823.137C275.741 824.071 274.008 825.271 274.008 825.937C274.008 826.604 273.208 827.137 272.275 827.137C270.275 827.137 258.941 834.204 254.408 838.204C252.808 839.537 250.941 840.337 250.275 839.937C249.608 839.537 248.675 840.337 248.275 841.804C247.875 843.271 245.875 845.137 243.875 846.071C241.875 847.004 237.741 850.337 234.808 853.404C231.875 856.471 228.941 858.604 228.408 858.337C227.875 857.937 227.341 858.604 227.341 859.671C227.341 860.871 226.808 861.804 226.008 861.804C225.341 861.804 224.675 862.471 224.675 863.271C224.675 864.071 223.875 865.537 222.808 866.604C221.341 868.071 220.675 868.071 220.275 866.737C219.875 865.804 219.475 866.204 219.475 867.537C219.341 869.804 217.208 872.737 208.941 881.404C206.141 884.471 192.541 903.271 189.075 909.137C182.408 919.937 171.875 943.804 168.541 955.404C157.875 992.737 158.408 1035.54 170.008 1067.14C172.008 1072.6 174.675 1080.47 176.008 1084.47C178.675 1092.74 182.541 1100.47 186.941 1106.6C188.675 1108.87 190.008 1111 190.008 1111.4C190.008 1111.8 191.875 1114.07 194.008 1116.47C196.275 1118.87 198.008 1121.4 198.008 1122.2C198.008 1122.87 199.475 1125.54 201.341 1127.94C203.208 1130.34 204.675 1133.67 204.675 1135.4C204.675 1137.67 205.075 1137.94 205.875 1136.6C206.808 1135.14 207.741 1135.4 210.808 1137.54C213.341 1139.4 216.808 1140.47 220.675 1140.47C229.741 1140.6 231.208 1140.2 232.141 1137.54C232.541 1136.2 233.475 1135.14 234.275 1135.14C236.541 1135.14 233.608 1116.74 231.075 1115C230.408 1114.6 229.341 1112.2 228.675 1109.67C228.008 1107.14 226.541 1102.47 225.208 1099.14C222.808 1092.47 222.008 1068.2 223.875 1055.14C225.608 1042.87 228.941 1028.47 229.741 1029C230.275 1029.27 230.675 1027.94 230.808 1026.07C230.941 1024.07 231.341 1020.34 231.741 1017.8C232.541 1012.6 241.475 989.804 243.475 987.937C244.141 987.137 244.675 985.537 244.675 984.204C244.675 982.871 245.341 981.804 246.008 981.804C246.808 981.804 247.341 981.004 247.341 980.071C247.341 977.271 255.208 966.204 262.941 958.071C266.808 953.937 270.008 950.471 270.008 950.204C270.008 947.271 300.275 925.404 306.675 923.804C308.808 923.404 313.075 921.671 316.541 920.071C320.408 918.204 336.008 917.937 337.875 919.804C340.275 922.204 342.275 952.204 341.475 973.137C340.941 984.071 340.541 1001.27 340.408 1011.14C340.408 1028.34 338.275 1046.07 335.875 1049.94C329.075 1061.14 311.741 1073.8 303.341 1073.8C302.008 1073.8 299.475 1074.34 297.741 1075C296.008 1075.67 292.008 1076.87 288.675 1077.8C273.608 1081.8 270.008 1084.6 270.008 1092.34C270.008 1098.6 272.275 1102.87 276.941 1105.8C280.808 1108.2 283.741 1108.47 302.675 1108.47C321.075 1108.47 324.541 1108.87 328.141 1111C336.141 1115.8 338.008 1130.87 337.875 1189.8C337.875 1236.2 336.675 1252.2 332.541 1261.94C330.141 1267.4 328.941 1268.6 324.675 1269.8C319.208 1271.27 291.208 1270.47 277.075 1268.47C266.941 1267.14 251.075 1261.8 246.008 1258.07C244.141 1256.74 240.141 1254.87 237.075 1254.07C232.675 1252.74 231.608 1251.94 232.141 1250.07C232.808 1248.2 232.675 1248.07 231.475 1249.8C230.408 1251.4 229.741 1251.4 228.408 1250.07C227.608 1249.27 225.741 1248.47 224.408 1248.47C222.675 1248.47 221.741 1247.14 221.208 1244.47C220.675 1242.2 219.875 1240.47 219.208 1240.47C218.541 1240.47 218.541 1241.54 218.941 1242.74C219.608 1244.47 219.208 1244.74 217.475 1244.07C216.141 1243.54 214.275 1243.14 213.341 1243.14C212.275 1243.14 210.275 1241.94 208.808 1240.34C207.341 1238.74 205.608 1237.8 204.941 1238.34C204.275 1238.74 202.675 1237.94 201.341 1236.47C200.008 1235 198.275 1233.8 197.341 1233.8C194.275 1233.8 172.141 1217.8 160.408 1207.14C143.875 1191.8 132.408 1177.8 116.141 1153C114.275 1150.07 112.675 1146.74 112.675 1145.67C112.675 1144.47 110.808 1139.67 108.541 1135C106.408 1130.34 103.075 1123.4 101.208 1119.67C99.4747 1115.94 98.008 1112.07 98.008 1111C98.008 1109.94 97.0747 1107.67 95.8747 1106.07C93.0747 1102.07 86.2747 1080.47 84.6747 1070.47C84.008 1066.07 82.408 1058.87 81.3414 1054.47C74.6747 1029 73.0747 974.737 78.1414 943.137C79.608 933.804 82.6747 922.604 84.6747 918.871C85.3414 917.671 87.0747 911.137 88.5414 904.604C91.208 892.871 97.0747 877.404 102.275 868.737C103.741 866.337 104.541 863.537 104.141 862.471C103.741 861.404 104.141 860.471 105.075 860.471C106.008 860.471 108.808 856.471 111.341 851.671C113.875 846.737 116.541 842.204 117.341 841.271C118.141 840.471 120.675 837.137 122.941 833.804C129.875 823.537 150.008 801.404 163.475 789.137C175.741 777.804 178.675 775.404 192.008 765.137C198.675 760.071 207.341 753.137 211.341 749.804C215.341 746.337 222.008 741.271 226.008 738.337C230.008 735.537 233.608 732.737 233.741 732.204C234.008 731.537 234.808 731.137 235.341 731.137C236.008 731.137 238.008 729.804 239.741 728.071C244.941 723.137 250.541 719.137 252.275 719.137C253.208 719.137 254.008 718.604 254.008 718.071C254.008 717.404 256.808 714.871 260.408 712.471C263.875 709.938 268.541 706.204 270.675 704.071C272.941 701.938 276.275 699.404 278.408 698.337C280.408 697.271 282.008 695.804 282.008 695.004C282.008 694.337 283.075 693.271 284.275 692.871C285.475 692.337 287.475 691.004 288.675 689.938C289.875 688.737 292.675 686.604 294.808 685.137C296.808 683.671 299.608 681.404 300.941 680.071C302.275 678.871 303.875 677.804 304.541 677.804C305.341 677.804 306.675 676.737 307.608 675.404C310.541 671.404 320.541 664.204 322.008 665.137C322.808 665.537 322.941 665.137 322.541 663.938C322.141 662.737 322.275 661.804 322.941 661.804C323.608 661.804 325.341 660.737 326.808 659.404C336.541 650.604 341.341 649.137 342.941 654.737ZM411.075 932.204C438.008 947.004 460.275 970.471 474.275 998.471C480.008 1009.94 487.875 1034.47 490.808 1050.47C495.741 1077.14 492.141 1113.67 481.075 1145.8C474.941 1163.94 462.141 1190.34 454.275 1200.87C428.541 1235.54 399.475 1259.14 382.275 1259.14C378.808 1259.14 377.875 1258.47 377.208 1255.4C376.808 1253.4 375.875 1249.67 375.208 1247.14C373.608 1240.74 373.741 1136.74 375.341 1125.27C376.141 1120.2 377.341 1115.27 378.141 1114.34C381.208 1110.6 391.075 1109.4 433.208 1107.8C452.808 1107 461.208 1105.27 463.608 1101.4C464.141 1100.47 464.675 1096.74 464.675 1093C464.675 1086.74 464.275 1085.67 460.008 1081.94C457.341 1079.67 454.275 1077.8 452.941 1077.8C443.475 1077.8 413.741 1065.14 404.808 1057.27C399.341 1052.34 394.541 1039.67 390.008 1017.8C386.408 1000.07 385.075 937.404 388.141 929.271C389.208 926.604 393.608 924.604 396.941 925.271C398.141 925.404 404.541 928.604 411.075 932.204ZM673.341 1085.27C675.075 1085.94 675.208 1086.34 673.741 1087.27C671.075 1089 668.675 1088.74 668.675 1086.47C668.675 1084.34 669.875 1083.94 673.341 1085.27ZM141.475 1711.27C140.275 1714.2 139.475 1714.87 139.475 1713.4C139.341 1710.6 141.875 1705.27 142.808 1706.2C143.208 1706.6 142.541 1708.87 141.475 1711.27Z" fill="black"/>
<path d="M667.886 1084.75C666.448 1086.32 667.167 1088.52 668.964 1089.47C670.761 1090.73 673.278 1090.1 674.356 1088.52C675.794 1086.95 675.075 1084.75 673.278 1083.81C671.48 1082.55 668.964 1083.18 667.886 1084.75Z" fill="black"/>
<path d="M139.116 1706.45C134.595 1708.54 134.179 1711.88 138.237 1714.72C141.372 1716.42 145.248 1714.63 146.31 1710.99C146.45 1706.21 143.637 1704.36 139.116 1706.45Z" fill="black"/>
<path d="M115.156 1681.46C111.6 1673.76 106.887 1672.61 103.501 1678.84C101.582 1683.73 104.629 1690.33 109.85 1692.58C116.538 1693.49 118.711 1689.16 115.156 1681.46Z" fill="black"/>
<path d="M120.156 1684.46C116.6 1676.76 111.887 1675.61 108.501 1681.84C106.582 1686.73 109.629 1693.33 114.85 1695.58C121.538 1696.49 123.711 1692.16 120.156 1684.46Z" fill="black"/>
<path d="M118.156 1683.46C114.6 1675.76 109.887 1674.61 106.501 1680.84C104.582 1685.73 107.629 1692.33 112.85 1694.58C119.538 1695.49 121.711 1691.16 118.156 1683.46Z" fill="black"/>
<path d="M123.156 1686.46C119.6 1678.76 114.887 1677.61 111.501 1683.84C109.582 1688.73 112.629 1695.33 117.85 1697.58C124.538 1698.49 126.711 1694.16 123.156 1686.46Z" fill="black"/>
<path d="M215.156 1280.46C211.6 1272.76 206.887 1271.61 203.501 1277.84C201.582 1282.73 204.629 1289.33 209.85 1291.58C216.538 1292.49 218.711 1288.16 215.156 1280.46Z" fill="black"/>
<path d="M37.032 1627.46C32.491 1629.56 34.2764 1637.68 41.6576 1647.69C47.0108 1654.17 50.9031 1652.37 49.7664 1643.95C46.6019 1631.99 41.573 1625.36 37.032 1627.46Z" fill="black"/>
</svg>
