<svg width="29" height="55" viewBox="0 0 29 55" fill="none" xmlns="http://www.w3.org/2000/svg">
<path d="M17.3603 0.0571938C17.3031 0.0994644 17.2283 0.124825 17.1975 0.112144C17.1667 0.0994644 17.1139 0.107918 17.083 0.129051C17.0566 0.150185 16.951 0.192455 16.8498 0.217815C16.753 0.247402 16.6342 0.30658 16.5902 0.353073C16.5462 0.39957 16.4846 0.437611 16.4494 0.437611C16.357 0.437611 15.6089 1.02937 15.314 1.33793C14.8344 1.83247 14.808 1.86629 14.764 1.98042C14.742 2.03959 14.698 2.07763 14.676 2.06495C14.6496 2.04805 14.6364 2.05227 14.6408 2.07341C14.6496 2.09031 14.6056 2.15372 14.5528 2.21289C14.2711 2.50032 13.5142 3.70074 13.083 4.53766C12.3745 5.91139 11.9433 7.49646 11.688 9.66061C11.6 10.3792 11.5472 11.4951 11.468 14.027C11.446 14.6779 11.4108 15.2612 11.3844 15.3204C11.3184 15.4768 11.0675 15.6923 10.5571 16.0305C10.0598 16.356 9.58898 16.6011 9.52737 16.5631C9.50097 16.5462 9.48337 16.5673 9.48337 16.6011C9.48337 16.6349 9.39536 16.7152 9.28534 16.7786C9.17533 16.8378 9.08732 16.9054 9.08732 16.9266C9.08732 16.9477 9.04772 16.9646 9.00371 16.9646C8.9553 16.9646 8.9113 16.9773 8.9025 16.9942C8.8805 17.0449 8.61206 17.2182 8.56366 17.2182C8.53726 17.2182 8.50205 17.2436 8.48445 17.2774C8.43164 17.3619 8.0752 17.5183 8.0708 17.4592C8.0708 17.4296 8.0444 17.4549 8.018 17.5141C7.95199 17.6494 7.87278 17.7297 7.83757 17.6959C7.82437 17.679 7.81117 17.6916 7.81117 17.717C7.81117 17.7424 7.78477 17.755 7.74956 17.7424C7.71436 17.7297 7.67916 17.7593 7.66595 17.8142C7.64835 17.8692 7.62635 17.8988 7.61315 17.8861C7.59555 17.8692 7.54714 17.8903 7.50314 17.9283C7.36232 18.0509 7.29191 18.1059 6.93987 18.3468C6.75505 18.4736 6.58783 18.6173 6.57023 18.6596C6.55263 18.7019 6.52182 18.7399 6.49982 18.7399C6.47782 18.7399 6.3194 18.8709 6.14778 19.0358C5.97616 19.1964 5.82214 19.3317 5.80454 19.3317C5.74733 19.3317 3.44587 21.6015 3.14663 21.9523C3.06302 22.0495 2.96621 22.1552 2.93981 22.1848C2.909 22.2186 2.8826 22.2609 2.8826 22.2862C2.8826 22.3116 2.865 22.3327 2.83859 22.3327C2.81659 22.3327 2.76819 22.3961 2.72858 22.468C2.69338 22.5441 2.60097 22.6751 2.52616 22.7554C2.45135 22.8357 2.35014 22.9879 2.29293 23.0936C2.15211 23.3683 1.80007 23.9601 1.58885 24.2771C1.48764 24.4293 1.35562 24.6575 1.29842 24.7843C1.24121 24.9111 1.162 25.0506 1.1224 25.0971C1.08719 25.1394 1.06079 25.1859 1.06519 25.2028C1.08279 25.2493 0.99038 25.5494 0.853964 25.9044C0.515125 26.7709 0.273097 27.6713 0.101477 28.7153C-0.026138 29.5057 -0.034939 30.8837 0.0838747 31.6107C0.255495 32.6632 0.435916 33.4747 0.572331 33.7875C0.607536 33.8678 0.664742 34.0538 0.704347 34.2017C0.743951 34.3497 0.831962 34.5948 0.90237 34.7428C0.977178 34.8907 1.03439 35.064 1.03439 35.1232C1.03439 35.1824 1.05199 35.2204 1.07399 35.2077C1.09599 35.1908 1.1268 35.2373 1.1444 35.305C1.1576 35.3726 1.2016 35.4529 1.23681 35.4825C1.27201 35.5078 1.29842 35.567 1.29842 35.6135C1.29842 35.6558 1.34682 35.7446 1.40403 35.8037C1.46564 35.8671 1.61525 36.0996 1.74287 36.3194C2.11691 36.983 2.31493 37.2831 2.63177 37.6678C3.00141 38.1285 3.65269 38.7752 3.7451 38.7752C3.7671 38.7752 4.29956 39.2317 4.72641 39.6121C4.88043 39.7558 5.27648 40.0095 5.55371 40.1532C5.71653 40.2377 5.91455 40.3518 5.99376 40.4068C6.06857 40.4617 6.14778 40.5082 6.16098 40.5082C6.20058 40.5082 6.59663 40.7745 6.61423 40.8168C6.62303 40.8337 6.64944 40.8337 6.67584 40.821C6.70224 40.8041 6.73745 40.821 6.75945 40.8506C6.78585 40.8929 6.79905 40.8844 6.79905 40.8126C6.79905 40.7576 6.82546 40.7196 6.86946 40.7196C6.91787 40.7196 6.93547 40.7449 6.91787 40.8041C6.90027 40.8717 7.00148 41.0154 7.04988 40.9816C7.05428 40.9774 7.06749 40.9732 7.07629 40.9774C7.08069 40.9774 7.11589 40.9859 7.15109 40.9943C7.35352 41.0366 7.45913 41.1042 7.46353 41.193C7.46353 41.2479 7.47673 41.2648 7.48993 41.2352C7.52074 41.1592 7.63515 41.1718 7.63515 41.2564C7.63515 41.3113 7.64835 41.3155 7.67036 41.2817C7.72756 41.1972 8.11921 41.2775 8.9333 41.5438C9.7826 41.8185 9.97182 41.9242 10.1786 42.2497C10.4779 42.7104 10.5395 43.3402 10.4911 45.3691C10.4383 47.5248 10.3151 48.6999 9.92782 50.6358C9.787 51.329 9.55377 52.0433 9.43936 52.1109C9.41296 52.1279 9.34255 52.2082 9.28534 52.2927C9.01251 52.6942 8.15881 53.4424 7.97399 53.4424C7.94319 53.4424 7.85958 53.4804 7.78477 53.5227C7.67916 53.5861 7.63075 53.5946 7.59115 53.5565C7.54714 53.5185 7.54274 53.5185 7.56474 53.5565C7.58675 53.5946 7.48553 53.658 7.37112 53.6749C7.35792 53.6749 7.33152 53.6876 7.30511 53.7002C7.2127 53.7552 6.71544 53.7932 6.16098 53.7848C5.33368 53.7763 4.51519 53.6157 4.10594 53.3748C3.94752 53.2818 3.83311 53.2395 3.7803 53.2606C3.7319 53.2776 3.7143 53.2733 3.7363 53.2395C3.7671 53.193 3.50747 52.9774 3.41946 52.9774C3.31825 52.9774 2.74178 52.4406 2.63617 52.2462C2.51736 52.0349 2.59217 52.0053 3.26104 52.0053C3.63509 52.0053 3.95192 51.9799 4.14555 51.9376C4.44918 51.87 4.73081 51.7643 4.77922 51.6967C4.79242 51.6798 4.82322 51.6671 4.84523 51.6756C4.90243 51.6883 5.14446 51.5572 5.38209 51.3839C6.14338 50.8302 6.59223 49.8707 6.68904 48.5942C6.71544 48.256 6.65384 47.6305 6.57903 47.4614C6.55703 47.4149 6.51742 47.3008 6.49102 47.2078C6.43381 47.026 6.07297 46.3582 6.01576 46.3328C5.99816 46.3244 5.89695 46.2145 5.78694 46.0834C5.55811 45.8129 5.35569 45.6354 5.10486 45.4875C4.80562 45.3142 4.39197 45.1578 4.10594 45.107C3.95192 45.0817 3.7803 45.0394 3.7187 45.0098C3.64389 44.9718 3.55148 44.9633 3.43266 44.9887C3.33585 45.0056 3.18623 45.0352 3.10263 45.0521C2.9046 45.0901 2.32814 45.3733 2.0377 45.572C1.91449 45.6565 1.71206 45.8214 1.58885 45.9397C1.46564 46.0539 1.35122 46.1468 1.33362 46.1384C1.31602 46.1342 1.29842 46.1595 1.29842 46.1976C1.29842 46.2356 1.22801 46.3328 1.1444 46.4131C1.06079 46.4934 0.99038 46.5864 0.99038 46.616C0.99038 46.6456 0.941974 46.764 0.884768 46.8781C0.39191 47.8207 0.295099 49.0718 0.620737 50.3357C0.81436 51.105 1.1268 51.9292 1.184 51.8404C1.23681 51.7601 1.30282 51.832 1.25881 51.9165C1.22801 51.9672 1.23241 52.0264 1.27201 52.0983C1.30722 52.1574 1.36442 52.3012 1.40403 52.4153C1.44363 52.5294 1.50964 52.652 1.55365 52.69C1.59325 52.7281 1.73847 52.876 1.87048 53.0239C2.46895 53.6876 3.01021 54.161 3.17303 54.161C3.20824 54.161 3.27425 54.2159 3.31385 54.2878C3.35345 54.3554 3.42386 54.4146 3.46347 54.4146C3.50747 54.4146 3.57788 54.4442 3.62629 54.4864C3.67469 54.5245 3.7671 54.5583 3.83751 54.5625C4.06194 54.5794 4.35237 54.6344 4.54159 54.6936C4.84963 54.7908 5.55371 54.8753 6.18298 54.8964C6.50862 54.9091 6.87826 54.9387 7.00588 54.9683C7.1951 55.0106 7.25671 55.0106 7.34472 54.9683C7.40632 54.9345 7.48113 54.9218 7.51634 54.9345C7.55154 54.9472 7.63515 54.9303 7.70556 54.8922C7.77597 54.8584 8.00039 54.7612 8.20282 54.6809C8.75728 54.4611 9.22374 54.1525 9.787 53.6326C10.5219 52.9563 11.0235 52.2377 11.4328 51.2656C11.9345 50.0821 12.0709 49.3297 12.1677 47.1655C12.1897 46.6076 12.2205 45.9524 12.2337 45.7073C12.2469 45.4621 12.2777 44.7478 12.2997 44.1222C12.3481 42.7992 12.4405 41.9496 12.5549 41.7594C12.6429 41.6114 12.6869 41.5861 13.2458 41.362C13.6551 41.1972 14.2755 40.8802 14.544 40.6942C14.9576 40.411 15.5605 39.8996 15.8421 39.5952C15.9609 39.4642 16.1501 39.2698 16.2602 39.1599C16.4802 38.9401 16.5242 38.8809 16.8102 38.4624C16.9158 38.3018 17.0214 38.1581 17.0434 38.1454C17.061 38.1327 17.1007 38.0735 17.1315 38.0144C17.1579 37.9552 17.2635 37.7861 17.3647 37.634C17.7607 37.0337 18.4384 35.4529 18.8344 34.2102C18.8961 34.02 19.2613 33.0182 19.3097 32.8999C19.3273 32.8661 19.3757 32.7223 19.4241 32.5829C19.5429 32.2109 19.9786 31.0443 20.0666 30.8498C20.1062 30.7569 20.1722 30.5836 20.2074 30.4694C20.2426 30.3511 20.291 30.237 20.3086 30.2158C20.3526 30.1651 20.445 29.9242 20.5991 29.455C20.6607 29.269 20.7707 28.9731 20.8367 28.7998C20.9071 28.6265 20.9863 28.4067 21.0127 28.3137C21.0611 28.1447 21.1051 28.039 21.532 26.94C21.6552 26.6272 21.84 26.1496 21.9412 25.8833C22.0424 25.617 22.1436 25.3888 22.1656 25.3845C22.1832 25.3761 22.2008 25.3338 22.2008 25.2915C22.2008 25.2239 22.3637 24.7589 22.4649 24.5518C22.4869 24.5053 22.5265 24.3954 22.5573 24.3067C22.5881 24.2221 22.6277 24.1503 22.6409 24.1503C22.6541 24.1503 22.6717 24.0996 22.6761 24.0362C22.6805 23.9728 22.7069 23.9009 22.7289 23.8798C22.7553 23.8544 22.7729 23.8079 22.7729 23.7699C22.7729 23.7318 22.8169 23.6135 22.8741 23.5078C22.9313 23.4021 23.0017 23.2373 23.0369 23.1401C23.0677 23.0471 23.1117 22.9668 23.1337 22.9668C23.1514 22.9668 23.169 22.916 23.169 22.8569C23.169 22.7977 23.2174 22.6328 23.2746 22.4891C23.3318 22.3454 23.4198 22.1045 23.4726 21.9523C23.5254 21.8001 23.587 21.6395 23.609 21.593C23.631 21.5465 23.6794 21.4113 23.7234 21.2972C23.7674 21.1788 23.8378 21.0266 23.8818 20.959C23.983 20.7942 23.983 20.773 23.8642 20.7984C23.785 20.8195 23.7762 20.8111 23.8114 20.7688C23.8422 20.7392 23.9038 20.7308 23.9566 20.7477C24.0711 20.7815 24.0667 20.773 24.0799 21.9734C24.0799 22.4849 24.1019 23.512 24.1195 24.256C24.2163 28.3264 24.2295 31.6741 24.1591 32.7519C24.1239 33.2169 24.0535 33.4959 23.9302 33.61C23.8774 33.6607 23.7982 33.7622 23.763 33.8298C23.7234 33.9059 23.6134 33.9862 23.4682 34.0538C23.191 34.1764 23.0809 34.2017 22.6409 34.2313C22.4605 34.2398 22.3065 34.2694 22.2977 34.2905C22.2889 34.3116 22.2492 34.3201 22.2052 34.3074C22.1612 34.299 22.0688 34.337 21.9896 34.4004C21.7476 34.5948 21.8092 34.971 22.1128 35.119C22.214 35.1697 22.5441 35.1866 23.7938 35.2035C25.0788 35.2246 26.4253 35.2585 26.6234 35.2754C26.707 35.2796 27.9831 35.2246 28.3616 35.1993C28.74 35.1697 28.9336 35.0978 28.9336 34.9837C28.9336 34.9499 28.9512 34.9372 28.9776 34.9499C29.026 34.9795 28.9908 34.7512 28.9204 34.5864C28.8544 34.4258 28.7532 34.3835 28.3264 34.3116C27.5299 34.1806 26.949 33.8425 26.8126 33.4367C26.7642 33.293 26.685 32.3842 26.6674 31.8009C26.6586 31.6022 26.6322 30.8329 26.6014 30.089C26.5749 29.3451 26.5573 28.4405 26.5661 28.0813C26.5749 27.722 26.5661 26.7329 26.5441 25.8833C26.5265 25.0337 26.5133 23.4951 26.5133 22.4595C26.5133 20.1305 26.5485 19.8727 26.905 19.5515C27.1294 19.3528 27.2218 19.3105 27.7895 19.1795C28.5728 19.002 28.6696 18.9428 28.6696 18.6554C28.6696 18.5624 28.63 18.4821 28.542 18.3975C28.4232 18.2834 28.388 18.275 28.0667 18.2707C27.8775 18.2665 27.4859 18.258 27.1954 18.2538C26.0337 18.2327 25.4 18.2285 25.3824 18.2496C25.3692 18.258 25.3076 18.2496 25.2372 18.2285C25.1536 18.1989 25.0568 18.1989 24.938 18.2285C24.8191 18.2623 24.7223 18.2623 24.6475 18.2327C24.5859 18.2115 24.5331 18.2073 24.5331 18.2285C24.5331 18.2454 24.3087 18.275 24.0403 18.2876C23.7674 18.3003 23.4682 18.3341 23.3758 18.3595C23.0369 18.4567 22.9929 18.537 22.4385 20.1728C22.1568 21.0013 21.9104 21.7156 21.8884 21.7621C21.8708 21.8086 21.796 22.0284 21.7212 22.2482C21.6508 22.468 21.4043 23.1823 21.1755 23.8333C20.9423 24.4842 20.6475 25.338 20.511 25.7354C20.379 26.1285 20.1986 26.6526 20.1106 26.8977C20.0226 27.1429 19.7454 27.9122 19.4945 28.6096C18.9577 30.1186 18.9929 30.0256 18.9181 30.0256C18.8873 30.0256 18.8433 29.9918 18.8168 29.9495C18.7332 29.8016 17.9808 27.7854 17.8003 27.2359C17.6991 26.9231 17.4175 26.1242 17.1755 25.4606C16.9334 24.797 16.6298 23.9432 16.5022 23.5585C16.3702 23.1739 16.2029 22.7005 16.1281 22.5018C16.0577 22.3031 15.8949 21.8593 15.7717 21.5127C15.6485 21.1619 15.4769 20.7054 15.3933 20.4983C15.3096 20.2869 15.1864 19.9615 15.116 19.7755C14.8124 18.9639 14.6804 18.6173 14.5748 18.351L14.4647 18.0721L14.5484 17.9072C14.6452 17.7255 14.9576 17.3408 15.5121 16.7237C15.7189 16.4954 15.9389 16.2503 15.9961 16.1784C16.0577 16.1066 16.2646 15.8614 16.4582 15.6289C16.8498 15.1682 16.8894 15.1133 17.5099 14.2256C17.7475 13.8832 17.9808 13.5536 18.0248 13.4901C18.0732 13.4267 18.1084 13.3591 18.1084 13.3422C18.1128 13.3253 18.2008 13.1731 18.3064 13.0125C18.7156 12.3785 19.4065 10.9287 19.741 9.99876C20.0446 9.13226 20.335 7.96564 20.4362 7.15409C20.511 6.60037 20.5771 5.27314 20.5506 4.87581C20.5374 4.67715 20.5198 4.33477 20.5066 4.11498C20.4802 3.62889 20.225 2.31857 20.137 2.19176C20.1194 2.1664 20.049 2.01423 19.983 1.85361C19.873 1.58309 19.8158 1.47319 19.6089 1.097C19.5693 1.02937 19.4813 0.923702 19.4109 0.864525C19.3405 0.805347 19.2217 0.691223 19.1513 0.615139C19.0765 0.543285 18.9929 0.479881 18.9621 0.479881C18.9313 0.479881 18.9005 0.467201 18.8917 0.446064C18.8873 0.429157 18.7948 0.36153 18.698 0.298126C18.5088 0.175549 18.346 0.120598 18.038 0.078331C17.9411 0.0656471 17.7959 0.0360603 17.7211 0.0149269C17.6287 -0.00620651 17.5715 -0.00620651 17.5539 0.0233803C17.5319 0.0529671 17.5143 0.0529671 17.4967 0.0233803C17.4791 -0.00620651 17.4307 0.00647354 17.3603 0.0571938ZM18.566 4.09807C18.7948 4.22488 18.9225 4.4024 19.0193 4.74901C19.1381 5.18015 19.1029 6.16078 18.9445 6.7779C18.808 7.31048 18.7376 7.5345 18.5616 8.00368C18.3328 8.61658 17.9059 9.47463 17.5803 9.99031C17.4527 10.189 17.3383 10.3792 17.3251 10.413C17.3119 10.4468 17.2239 10.5821 17.1227 10.7089C16.8894 11.0132 16.8982 11.0048 16.753 11.1738C16.6826 11.2541 16.577 11.3894 16.5198 11.4739C16.3086 11.774 15.5473 12.5941 15.1204 12.9829C14.984 13.1055 14.6892 13.3422 14.4647 13.5113C13.9191 13.9128 13.9147 13.9213 13.5318 14.1538C13.3514 14.2679 13.1314 14.4031 13.0478 14.4539C12.9642 14.5088 12.819 14.5807 12.7309 14.6145L12.5681 14.6821L12.5329 14.5426C12.4757 14.3271 12.5109 12.3193 12.5857 11.6388C12.6781 10.8061 12.8014 9.9734 12.8718 9.7367C12.9202 9.58453 12.9686 9.39432 12.9862 9.31401C13.1578 8.41792 13.7211 7.28935 14.5396 6.18614C14.7816 5.86067 15.8993 4.77014 16.0357 4.72787C16.0841 4.71519 16.1281 4.67715 16.1281 4.64333C16.1281 4.59261 16.1897 4.55034 16.2778 4.54612C16.2998 4.54612 16.3306 4.52921 16.3438 4.50808C16.3878 4.4489 17.2107 4.07271 17.2987 4.07271C17.3471 4.07271 17.4131 4.05157 17.4483 4.03044C17.4835 4.00508 17.7079 3.98817 17.9499 3.9924C18.3152 3.99663 18.412 4.01353 18.566 4.09807ZM13.0478 20.4095C13.0478 20.4433 13.0786 20.5405 13.1182 20.6293C13.1578 20.7181 13.2106 20.828 13.2282 20.8745C13.3602 21.1661 13.9851 23.0471 14.0379 23.3049C14.0555 23.3852 14.1083 23.5289 14.1479 23.6219C14.1919 23.7149 14.2403 23.8586 14.2579 23.9389C14.2975 24.1334 14.5748 25.0041 14.6804 25.2577C14.786 25.5113 14.7904 25.748 14.6892 25.7861C14.6188 25.8114 14.5176 25.7903 13.7519 25.5747C13.545 25.5156 13.2942 25.4479 13.193 25.4183C13.0566 25.3845 12.9862 25.338 12.9422 25.2535C12.8234 25.0337 12.7705 24.2644 12.8014 23.0851C12.8322 21.7959 12.8322 21.8889 12.8322 21.1323C12.8322 20.6927 12.8454 20.5194 12.8982 20.4264C12.9642 20.3038 13.0478 20.2954 13.0478 20.4095ZM11.3184 20.7561C11.3404 20.8237 11.3536 21.6522 11.3492 22.6075C11.3448 24.9238 11.292 25.2535 10.9003 25.4014C10.8123 25.4352 10.6275 25.5071 10.4955 25.5663C10.2711 25.6593 9.7342 25.8326 9.56258 25.8622C9.51857 25.8706 9.44376 25.9171 9.39095 25.9636C9.33815 26.0101 9.24134 26.0693 9.17093 26.0946C9.10052 26.1242 9.04331 26.1623 9.04331 26.1834C9.04331 26.2045 9.01691 26.2214 8.98611 26.2214C8.9201 26.2214 8.54606 26.4455 8.39644 26.5723C8.34363 26.6145 8.28203 26.6399 8.26002 26.6272C8.23802 26.6145 8.20722 26.6399 8.19402 26.6864C8.18081 26.7329 8.11481 26.7921 8.0488 26.8217C7.98279 26.8512 7.84638 26.9569 7.74956 27.0541C7.65275 27.1514 7.55594 27.219 7.53834 27.2105C7.52074 27.1978 7.50314 27.219 7.50314 27.2528C7.50314 27.2908 7.48553 27.3204 7.45913 27.3204C7.43713 27.3204 7.41513 27.3416 7.41513 27.3669C7.41513 27.3923 7.38872 27.4388 7.35352 27.4726C7.30511 27.5191 7.28311 27.5191 7.26991 27.4768C7.25671 27.4472 7.24351 27.4599 7.24351 27.5022C7.23911 27.574 7.1687 27.667 6.89587 27.9418C6.80345 28.039 6.3546 28.635 6.24019 28.821C6.02016 29.1633 5.67252 29.9199 5.56251 30.2877C5.21047 31.4712 5.22807 32.828 5.61092 33.8298C5.67692 34.0031 5.76493 34.2525 5.80894 34.3793C5.89695 34.6413 6.02456 34.8865 6.16978 35.0809C6.22699 35.1528 6.27099 35.2204 6.27099 35.2331C6.27099 35.2458 6.3326 35.3176 6.40301 35.3937C6.47782 35.4698 6.53502 35.5501 6.53502 35.5755C6.53502 35.5966 6.58343 35.6811 6.64504 35.7572C6.70664 35.8333 6.75505 35.939 6.75505 35.9939C6.75505 36.0658 6.76825 36.0742 6.79465 36.032C6.82546 35.9855 6.85626 35.9939 6.95747 36.0616C7.04108 36.1207 7.1555 36.1546 7.28311 36.1546C7.58235 36.1588 7.63075 36.1461 7.66155 36.0616C7.67476 36.0193 7.70556 35.9855 7.73196 35.9855C7.80677 35.9855 7.70996 35.4022 7.62635 35.3472C7.60435 35.3345 7.56914 35.2585 7.54714 35.1782C7.52514 35.0978 7.47673 34.9499 7.43273 34.8442C7.35352 34.6329 7.32712 33.8636 7.38872 33.4494C7.44593 33.0605 7.55594 32.604 7.58235 32.6209C7.59995 32.6294 7.61315 32.5871 7.61755 32.5279C7.62195 32.4645 7.63515 32.3462 7.64835 32.2658C7.67476 32.101 7.96959 31.3782 8.0356 31.319C8.0576 31.2937 8.0752 31.2429 8.0752 31.2007C8.0752 31.1584 8.09721 31.1246 8.11921 31.1246C8.14561 31.1246 8.16321 31.0992 8.16321 31.0696C8.16321 30.9809 8.42284 30.6301 8.67807 30.3722C8.80569 30.2412 8.9113 30.1313 8.9113 30.1228C8.9113 30.0298 9.91022 29.3366 10.1214 29.2859C10.1918 29.2732 10.3327 29.2183 10.4471 29.1676C10.5747 29.1084 11.0896 29.0999 11.1512 29.1591C11.2304 29.2352 11.2964 30.1862 11.27 30.8498C11.2524 31.1965 11.2392 31.7417 11.2348 32.0545C11.2348 32.5998 11.1644 33.1619 11.0852 33.2845C10.8607 33.6396 10.2887 34.0411 10.0114 34.0411C9.96742 34.0411 9.88381 34.058 9.82661 34.0792C9.7694 34.1003 9.63738 34.1383 9.52737 34.1679C9.03011 34.2947 8.9113 34.3835 8.9113 34.6287C8.9113 34.8273 8.98611 34.9626 9.14013 35.0556C9.26774 35.1317 9.36455 35.1401 9.98942 35.1401C10.5967 35.1401 10.7111 35.1528 10.8299 35.2204C11.094 35.3726 11.1556 35.8502 11.1512 37.7185C11.1512 39.1894 11.1116 39.6967 10.9751 40.0052C10.8959 40.1785 10.8563 40.2166 10.7155 40.2546C10.5351 40.3011 9.61098 40.2757 9.14453 40.2123C8.81009 40.1701 8.28643 40.001 8.11921 39.8826C8.0576 39.8404 7.92558 39.7812 7.82437 39.7558C7.67916 39.7136 7.64395 39.6882 7.66155 39.629C7.68356 39.5699 7.67916 39.5656 7.63955 39.6206C7.60435 39.6713 7.58235 39.6713 7.53834 39.629C7.51194 39.6037 7.45033 39.5783 7.40632 39.5783C7.34912 39.5783 7.31831 39.536 7.30071 39.4515C7.28311 39.3796 7.25671 39.3247 7.2347 39.3247C7.2127 39.3247 7.2127 39.3585 7.2259 39.3966C7.24791 39.4515 7.2347 39.46 7.1775 39.4388C7.13349 39.4219 7.07189 39.4092 7.04108 39.4092C7.00588 39.4092 6.93987 39.3712 6.89146 39.3205C6.84306 39.2698 6.78585 39.2402 6.76385 39.2571C6.74185 39.2698 6.68904 39.2444 6.64504 39.1979C6.60103 39.1514 6.54382 39.1134 6.51302 39.1134C6.41181 39.1134 5.68132 38.6061 5.29408 38.268C4.74842 37.7819 4.36997 37.3381 3.83311 36.5519C3.7715 36.4589 3.7187 36.3532 3.7187 36.3194C3.7187 36.2814 3.65709 36.1292 3.58228 35.9813C3.51187 35.8333 3.40186 35.6135 3.34025 35.4952C3.28305 35.3768 3.23464 35.2542 3.23464 35.2204C3.23464 35.1866 3.20384 35.1147 3.16423 35.064C3.07182 34.9372 2.8474 34.2525 2.79459 33.9355C2.77259 33.796 2.71978 33.5677 2.68458 33.4282C2.46455 32.6209 2.41175 30.9006 2.57896 29.8988C2.62737 29.6029 2.72858 29.2479 2.79459 29.1295C2.81659 29.0915 2.8738 28.8844 2.9222 28.6772C3.01021 28.3053 3.20384 27.815 3.37546 27.5402C3.42386 27.4641 3.45027 27.3754 3.43706 27.3416C3.42386 27.3077 3.43706 27.2782 3.46787 27.2782C3.49867 27.2782 3.59108 27.1514 3.67469 26.9992C3.7583 26.8428 3.84631 26.6991 3.87271 26.6695C3.89912 26.6441 3.98273 26.5385 4.05754 26.4328C4.28636 26.1073 4.95084 25.4057 5.39529 25.0168C5.80014 24.6575 5.89695 24.5814 6.337 24.256C6.55703 24.0953 6.84306 23.8755 6.97507 23.7699C7.10709 23.66 7.32712 23.4993 7.45913 23.4064C7.59115 23.3176 7.70996 23.2288 7.71436 23.2119C7.72316 23.1908 7.74956 23.1781 7.76717 23.1781C7.78917 23.1781 7.85518 23.1358 7.91238 23.0809C8.084 22.9245 8.26882 22.7977 8.32603 22.7977C8.35683 22.7977 8.38324 22.7808 8.38324 22.7639C8.38324 22.7427 8.47565 22.6624 8.59446 22.5863C8.70888 22.506 8.86289 22.3877 8.9333 22.3201C9.00811 22.2524 9.11812 22.1721 9.18853 22.1383C9.25454 22.1045 9.30735 22.058 9.30735 22.0326C9.30735 22.0115 9.34255 21.9777 9.38215 21.965C9.42176 21.9481 9.48777 21.9058 9.52737 21.872C9.56698 21.834 9.65939 21.7663 9.72979 21.7198C9.7958 21.6733 9.88821 21.6015 9.93222 21.5592C9.97622 21.5212 10.029 21.4874 10.051 21.4874C10.0774 21.4874 10.1214 21.4535 10.1522 21.4113C10.2491 21.2845 10.5791 21.0562 10.6275 21.0858C10.6539 21.0985 10.6583 21.0858 10.6451 21.0478C10.6319 21.0097 10.6363 20.9801 10.6583 20.9801C10.6803 20.9801 10.7375 20.9463 10.7859 20.9041C11.1072 20.6251 11.2656 20.5786 11.3184 20.7561ZM13.567 29.5522C14.4559 30.0214 15.1908 30.7653 15.6529 31.653C15.8421 32.0165 16.1017 32.7942 16.1985 33.3014C16.3614 34.1468 16.2425 35.305 15.8773 36.3236C15.6749 36.8985 15.2524 37.7354 14.9928 38.0693C14.1435 39.1683 13.1842 39.9165 12.6165 39.9165C12.5021 39.9165 12.4713 39.8953 12.4493 39.7981C12.4361 39.7347 12.4053 39.6164 12.3833 39.536C12.3305 39.3332 12.3349 36.0362 12.3877 35.6727C12.4141 35.5121 12.4537 35.3557 12.4801 35.3261C12.5813 35.2077 12.907 35.1697 14.2975 35.119C14.9444 35.0936 15.2216 35.0387 15.3008 34.9161C15.3184 34.8865 15.336 34.7681 15.336 34.6498C15.336 34.4511 15.3228 34.4173 15.182 34.299C15.094 34.2271 14.9928 34.1679 14.9488 34.1679C14.6364 34.1679 13.6551 33.7664 13.3602 33.517C13.1798 33.3606 13.0214 32.9591 12.8718 32.2658C12.7529 31.7037 12.7089 29.7171 12.8102 29.4592C12.8454 29.3747 12.9906 29.3113 13.1006 29.3324C13.1402 29.3366 13.3514 29.4381 13.567 29.5522ZM22.2228 34.4046C22.2801 34.4258 22.2845 34.4385 22.236 34.468C22.148 34.523 22.0688 34.5145 22.0688 34.4427C22.0688 34.375 22.1084 34.3624 22.2228 34.4046ZM4.66921 54.2497C4.6296 54.3427 4.6032 54.3639 4.6032 54.3174C4.5988 54.2286 4.68241 54.0595 4.71321 54.0891C4.72641 54.1018 4.70441 54.1736 4.66921 54.2497Z" fill="#EFF0E2"/>
<path d="M22.0428 34.3881C21.9954 34.4379 22.0191 34.5077 22.0784 34.5376C22.1377 34.5775 22.2208 34.5576 22.2564 34.5077C22.3038 34.4579 22.2801 34.3881 22.2208 34.3581C22.1615 34.3183 22.0784 34.3382 22.0428 34.3881Z" fill="#EFF0E2"/>
</svg>
